<svg width="32" height="32" viewBox="0 0 32 32" fill="none" xmlns="http://www.w3.org/2000/svg">
<g clip-path="url(#clip0_118_9)">
<path d="M1.94579 17.2291C1.493 17.7081 1.16548 18.2616 0.963232 18.8897C0.76588 19.5042 0.716717 20.1306 0.815743 20.7688C0.820992 20.8022 0.82694 20.8355 0.833589 20.8686C0.956059 21.5287 1.16986 22.1592 1.47498 22.7601C1.76716 23.3349 2.12565 23.8655 2.55044 24.3518C3.16734 24.2995 3.77549 24.1977 4.37489 24.0461C4.96695 23.8981 5.54116 23.7019 6.09752 23.4577C5.62444 23.1118 5.21504 22.702 4.86932 22.2282C4.58519 21.837 4.3504 21.4186 4.16494 20.9731C3.97984 20.5265 3.86804 20.0619 3.82955 19.5795C3.79246 19.1179 3.82238 18.6608 3.91931 18.2083C4.04248 17.6346 4.26694 17.1033 4.59271 16.6146C4.88944 16.1697 5.27435 15.8268 5.74743 15.5857C5.82791 15.5439 5.90857 15.5066 5.9894 15.4739C5.81129 15.4781 5.63353 15.4876 5.45613 15.5026C4.78254 15.558 4.145 15.7367 3.5435 16.0387C2.9406 16.3429 2.40803 16.7396 1.94579 17.2291Z" fill="url(#paint0_linear_118_9)"/>
<path d="M11.8223 12.406C11.2705 12.1702 10.6998 11.988 10.1102 11.8595C9.47543 11.7236 8.83299 11.6598 8.18285 11.6682C7.50892 11.6769 6.8453 11.7619 6.19202 11.9232C5.58212 12.0744 5.00283 12.304 4.45417 12.6119C3.9083 12.9195 3.41247 13.2942 2.96668 13.7359C2.51984 14.178 2.13091 14.665 1.79989 15.1969C1.44648 15.7637 1.17757 16.3662 0.993169 17.0044C0.819611 17.6022 0.717611 18.2114 0.687168 18.8322C0.654626 19.4826 0.697491 20.1281 0.815762 20.7687C0.716736 20.1305 0.765899 19.5042 0.963251 18.8897C1.1655 18.2616 1.49302 17.7081 1.94581 17.2291C2.40805 16.7396 2.94061 16.3428 3.54352 16.0387C4.14502 15.7367 4.78256 15.558 5.45615 15.5026C5.63355 15.4876 5.81131 15.478 5.98942 15.4739C6.02931 15.4599 6.06902 15.4462 6.10856 15.4326C6.5505 15.2939 7.00207 15.2357 7.46325 15.258C7.97658 15.2772 8.48063 15.3547 8.97541 15.4906C9.50343 15.6365 10.008 15.8381 10.4891 16.0952C10.9524 16.3449 11.3902 16.6342 11.8024 16.9631C12.1677 17.254 12.5132 17.5663 12.839 17.9L15.3946 14.6812C15.2749 14.5815 15.1544 14.4826 15.0329 14.3844C14.5557 13.9939 14.0563 13.6336 13.535 13.3038C12.9887 12.9592 12.4179 12.66 11.8223 12.406Z" fill="url(#paint1_linear_118_9)"/>
<path d="M10.9883 7.76746C10.9883 6.99305 10.718 6.3317 10.1774 5.78338C9.63782 5.23541 8.98628 4.96143 8.22277 4.96143C7.45926 4.96143 6.80719 5.23541 6.26658 5.78338C5.72631 6.3317 5.45618 6.99305 5.45618 7.76746C5.45618 8.54186 5.72631 9.20322 6.26658 9.75153C6.80719 10.2995 7.45926 10.5735 8.22277 10.5735C8.98628 10.5735 9.63782 10.2995 10.1774 9.75153C10.718 9.20322 10.9883 8.54186 10.9883 7.76746Z" fill="#1D89B5"/>
<path d="M30.8369 17.832C30.9003 18.4908 30.7949 19.1218 30.521 19.7252C30.2498 20.3205 29.874 20.8422 29.3935 21.2902C28.9208 21.7295 28.3891 22.0806 27.7984 22.3436C27.2291 22.5972 26.6331 22.7453 26.0102 22.7878C25.6645 22.8122 25.3193 22.8085 24.9746 22.7768C24.9001 22.7848 24.8258 22.7927 24.7516 22.8003C24.2337 22.8219 23.7261 22.7592 23.2289 22.6122C22.7985 22.4861 22.38 22.3285 21.9734 22.1393C21.5035 21.9202 21.0572 21.6584 20.6345 21.3539C20.2051 21.0439 19.8069 20.6983 19.4399 20.3172L16.9315 23.1995C17.2548 23.5172 17.5922 23.8208 17.9435 24.1103C18.4396 24.519 18.9666 24.8856 19.5244 25.2103C20.0402 25.5102 20.579 25.7593 21.141 25.9575C21.7463 26.1693 22.3678 26.3081 23.0053 26.374C23.6499 26.4377 24.293 26.4348 24.9348 26.3651C25.5761 26.2965 26.196 26.1423 26.7944 25.9026C27.4183 25.6515 27.9836 25.3036 28.4902 24.8591C28.9973 24.4167 29.4327 23.9137 29.7966 23.35C30.1392 22.8205 30.405 22.2534 30.5939 21.6486C30.7923 21.0136 30.9132 20.3656 30.9566 19.7048C30.9972 19.0736 30.9573 18.4493 30.8369 17.832Z" fill="url(#paint2_linear_118_9)"/>
<path d="M27.6247 18.2021C27.722 18.8403 27.6971 19.4733 27.5502 20.101C27.3948 20.7643 27.094 21.353 26.6479 21.8672C26.2035 22.3789 25.6457 22.6822 24.9746 22.7769C25.3193 22.8086 25.6645 22.8123 26.0102 22.7879C26.633 22.7454 27.2291 22.5974 27.7984 22.3438C28.3891 22.0808 28.9208 21.7296 29.3935 21.2903C29.8739 20.8423 30.2497 20.3207 30.5209 19.7253C30.7949 19.122 30.9002 18.4909 30.8369 17.8322C30.7571 17.4201 30.6343 17.0208 30.4684 16.6345C30.0398 15.6302 29.414 14.765 28.591 14.0391C27.6151 14.2383 26.6801 14.5569 25.7861 14.9948C26.2574 15.4146 26.6561 15.8934 26.9822 16.4312C27.314 16.9796 27.5281 17.5699 27.6247 18.2021Z" fill="url(#paint3_linear_118_9)"/>
<path d="M25.8742 5.78338C25.3336 5.23541 24.6815 4.96143 23.918 4.96143C23.1545 4.96143 22.5026 5.23541 21.9623 5.78338C21.4224 6.3317 21.1525 6.99305 21.1525 7.76746C21.1525 8.54186 21.4224 9.20322 21.9623 9.75153C22.5026 10.2995 23.1545 10.5735 23.918 10.5735C24.6815 10.5735 25.3336 10.2995 25.8742 9.75153C26.4138 9.20322 26.6836 8.54186 26.6836 7.76746C26.6836 6.99305 26.4138 6.3317 25.8742 5.78338Z" fill="#7E319A"/>
<path d="M24.7389 11.7488C24.1203 11.7899 23.5057 11.8623 22.8951 11.9662C22.2498 12.0755 21.621 12.2457 21.0087 12.4767C20.3795 12.7146 19.7759 13.0043 19.1979 13.3457C18.6782 13.654 18.1812 13.9952 17.7067 14.3693C17.2025 14.7682 16.7243 15.1951 16.2722 15.6501C15.8642 16.0611 15.4701 16.4861 15.0897 16.925C14.7342 17.3344 14.3804 17.746 14.0284 18.1598C13.6218 18.6374 13.2178 19.1181 12.8165 19.602C12.4134 20.088 11.9889 20.5537 11.5432 20.9993C11.0834 21.4577 10.5979 21.8885 10.0866 22.2915C9.56491 22.7029 9.018 23.0774 8.44589 23.415C7.88673 23.7463 7.30919 24.0403 6.71329 24.297C6.10969 24.5572 5.48876 24.7692 4.85052 24.9329C4.22872 25.0911 3.59905 25.2095 2.96151 25.2883C2.33761 25.366 1.71109 25.4109 1.08195 25.4231C0.410813 25.4356 -0.259448 25.4165 -0.928833 25.3656C-0.77802 25.4391 -0.624408 25.5116 -0.467996 25.583C0.0579243 25.8202 0.595917 26.0259 1.14598 26.2001C1.60192 26.3454 2.06258 26.4711 2.52797 26.5774C2.94891 26.6735 3.37406 26.7545 3.8034 26.8204C4.25409 26.8893 4.70723 26.9459 5.16282 26.9902C5.67754 27.0337 6.19314 27.0478 6.70961 27.0325C7.10292 27.0193 7.49395 26.9879 7.8827 26.9384C8.2732 26.8876 8.66004 26.8198 9.04319 26.7352C9.58591 26.6122 10.1192 26.4558 10.643 26.2659C11.0248 26.1266 11.3999 25.9709 11.7683 25.7988C12.1119 25.6378 12.443 25.4534 12.7614 25.2454C12.9636 25.1141 13.1626 24.977 13.3582 24.8342C13.5667 24.6809 13.7721 24.5231 13.9744 24.3608C14.1542 24.2172 14.3302 24.0702 14.5024 23.9197C14.9559 23.5233 15.3955 23.111 15.8214 22.6829C16.3438 22.1576 16.8485 21.6164 17.3356 21.0594C17.6649 20.6824 17.9838 20.2963 18.2925 19.9009C18.9552 19.0537 19.6778 18.262 20.4602 17.526C21.2618 16.7704 22.1275 16.0956 23.0572 15.5017C24.0314 14.8788 25.0609 14.3674 26.1456 13.9675C26.8083 13.7226 27.487 13.5387 28.1816 13.4157C28.7288 13.3181 29.2798 13.2558 29.8344 13.2286C30.5583 13.1931 31.2802 13.2046 32 13.2631C31.4205 12.9893 30.8271 12.7467 30.2196 12.5352C29.643 12.3345 29.0548 12.1682 28.455 12.0362C27.8787 11.9097 27.2973 11.8211 26.7109 11.7702C26.0534 11.7117 25.3961 11.7045 24.7389 11.7488Z" fill="url(#paint4_linear_118_9)"/>
</g>
<defs>
<linearGradient id="paint0_linear_118_9" x1="3.15194" y1="23.6051" x2="4.17693" y2="16.0501" gradientUnits="userSpaceOnUse">
<stop stop-color="#1B41A1"/>
<stop offset="1" stop-color="#1B41A1"/>
</linearGradient>
<linearGradient id="paint1_linear_118_9" x1="0.67654" y1="16.2681" x2="15.3921" y2="16.2681" gradientUnits="userSpaceOnUse">
<stop stop-color="#27A5C8"/>
<stop offset="1" stop-color="#146DA2"/>
</linearGradient>
<linearGradient id="paint2_linear_118_9" x1="16.9109" y1="22.1226" x2="30.9662" y2="22.1226" gradientUnits="userSpaceOnUse">
<stop stop-color="#1776A8"/>
<stop offset="1" stop-color="#1B41A1"/>
</linearGradient>
<linearGradient id="paint3_linear_118_9" x1="29.2175" y1="14.1761" x2="25.9547" y2="23.1666" gradientUnits="userSpaceOnUse">
<stop stop-color="#1B41A1"/>
<stop offset="1" stop-color="#1B41A1"/>
</linearGradient>
<linearGradient id="paint4_linear_118_9" x1="-0.930276" y1="19.3768" x2="31.9978" y2="19.3768" gradientUnits="userSpaceOnUse">
<stop stop-color="#1B41A1"/>
<stop offset="1" stop-color="#1B41A1"/>
</linearGradient>
<clipPath id="clip0_118_9">
<rect width="32" height="32" fill="white"/>
</clipPath>
</defs>
</svg>
